<?xml version="1.0" encoding="UTF-8"?>
<svg width="52px" height="34px" viewBox="0 0 52 34" version="1.1" xmlns="http://www.w3.org/2000/svg" xmlns:xlink="http://www.w3.org/1999/xlink">
    <!-- Generator: Sketch 43.1 (39012) - http://www.bohemiancoding.com/sketch -->
    <title>icon-tagcloud sm</title>
    <desc>Created with Sketch.</desc>
    <defs></defs>
    <g id="Visualize" stroke="none" stroke-width="1" fill="none" fill-rule="evenodd">
        <g id="Visualize-Create-New" transform="translate(-760.000000, -658.000000)" fill="#000000">
            <g id="other" transform="translate(555.000000, 576.000000)">
                <g id="tag-cloud" transform="translate(161.000000, 44.000000)">
                    <g id="icon-tagcloud-sm" transform="translate(44.000000, 38.000000)">
                        
                        <rect id="1" x="0" y="21" width="3" height="3" style="fill :#800080;"></rect>
                        <rect id="2" x="4" y="21" width="3" height="3" style="fill :#800080;"></rect>
                        <rect id="3" x="8" y="21" width="3" height="3" style="fill :#800080;"></rect>
                        <rect id="4" x="12" y="21" width="3" height="3" style="fill :#800080;"></rect>
                        <rect id="5" x="16" y="21" width="3" height="3" style="fill :#800080;"></rect>
                        <rect id="6" x="20" y="21" width="3" height="3" style="fill :#800080;"></rect>
                        <rect id="7" x="24" y="21" width="3" height="3" style="fill :#800080;"></rect>
                        <rect id="8" x="28" y="21" width="3" height="3" style="fill :#800080;"></rect>
                        <rect id="9" x="32" y="21" width="3" height="3" style="fill :#800080;"></rect>
                        <rect id="10" x="36" y="21" width="3" height="3" style="fill :#800080;"></rect>
                        <rect id="11" x="40" y="21" width="3" height="3" style="fill :#800080;"></rect>
                        <rect id="12" x="44" y="21" width="3" height="3" style="fill :#800080;"></rect>
                        <rect id="13" x="48" y="21" width="3" height="3" style="fill :#800080;"></rect>
                        <rect id="14" x="52" y="21" width="3" height="3" style="fill :#800080;"></rect>

                        <rect id="15" x="0" y="25" width="3" height="3" style="fill :#800080;"></rect>
                        <rect id="16" x="4" y="25" width="3" height="3" style="fill :#800080;"></rect>
                        <rect id="17" x="8" y="25" width="3" height="3" style="fill :#800080;"></rect>
                        <rect id="18" x="12" y="25" width="3" height="3" style="fill :#800080;"></rect>
                        <rect id="19" x="16" y="25" width="3" height="3" style="fill :#800080;"></rect>
                        <rect id="20" x="20" y="25" width="3" height="3" style="fill :#800080;"></rect>
                        <rect id="21" x="24" y="25" width="3" height="3" style="fill :#800080;"></rect>
                        <rect id="22" x="28" y="25" width="3" height="3" style="fill :#800080;"></rect>
                        <rect id="23" x="32" y="25" width="3" height="3" style="fill :#800080;"></rect>
                        <rect id="24" x="36" y="25" width="3" height="3" style="fill :#800080;"></rect>
                        <rect id="25" x="40" y="25" width="3" height="3" style="fill :#800080;"></rect>
                        <rect id="26" x="44" y="25" width="3" height="3" style="fill :#800080;"></rect>
                        <rect id="27" x="48" y="25" width="3" height="3" style="fill :#800080;"></rect>
                        <rect id="28" x="52" y="25" width="3" height="3" style="fill :#800080;"></rect>

                        <rect id="29" x="4" y="29" width="3" height="3" style="fill :#800080;"></rect>
                        <rect id="30" x="8" y="29" width="3" height="3" style="fill :#800080;"></rect>
                        <rect id="31" x="12" y="29" width="3" height="3" style="fill :#800080;"></rect>
                        <rect id="32" x="16" y="29" width="3" height="3" style="fill :#800080;"></rect>
                        <rect id="33" x="20" y="29" width="3" height="3" style="fill :#800080;"></rect>
                        <rect id="34" x="24" y="29" width="3" height="3" style="fill :#800080;"></rect>
                        <rect id="35" x="28" y="29" width="3" height="3" style="fill :#800080;"></rect>
                        <rect id="36" x="32" y="29" width="3" height="3" style="fill :#800080;"></rect>
                        <rect id="37" x="36" y="29" width="3" height="3" style="fill :#800080;"></rect>
                        <rect id="38" x="40" y="29" width="3" height="3" style="fill :#800080;"></rect>
                        <rect id="39" x="44" y="29" width="3" height="3" style="fill :#800080;"></rect>

                        <rect id="40" x="4" y="33" width="3" height="3" style="fill :#800080;"></rect>
                        <rect id="41" x="8" y="33" width="3" height="3" style="fill :#800080;"></rect>
                        <rect id="42" x="12" y="33" width="3" height="3" style="fill :#800080;"></rect>
                        <rect id="43" x="16" y="33" width="3" height="3" style="fill :#800080;"></rect>
                        <rect id="44" x="20" y="33" width="3" height="3" style="fill :#800080;"></rect>
                        <rect id="45" x="24" y="33" width="3" height="3" style="fill :#800080;"></rect>
                        <rect id="46" x="28" y="33" width="3" height="3" style="fill :#800080;"></rect>
                        <rect id="47" x="32" y="33" width="3" height="3" style="fill :#800080;"></rect>
                        <rect id="48" x="36" y="33" width="3" height="3" style="fill :#800080;"></rect>
                        <rect id="49" x="40" y="33" width="3" height="3" style="fill :#800080;"></rect>
                        <rect id="50" x="44" y="33" width="3" height="3" style="fill :#800080;"></rect>
                         
                        
                        <rect id="51" x="8" y="37" width="3" height="3" style="fill :#800080;"></rect>
                        <rect id="52" x="12" y="37" width="3" height="3" style="fill :#800080;"></rect>
                        <rect id="53" x="16" y="37" width="3" height="3" style="fill :#800080;"></rect>
                        <rect id="54" x="20" y="37" width="3" height="3" style="fill :#800080;"></rect>
                        <rect id="55" x="24" y="37" width="3" height="3" style="fill :#800080;"></rect>
                        <rect id="56" x="28" y="37" width="3" height="3" style="fill :#800080;"></rect>
                        <rect id="57" x="32" y="37" width="3" height="3" style="fill :#800080;"></rect>
                        <rect id="58" x="36" y="37" width="3" height="3" style="fill :#800080;"></rect>
                        <rect id="59" x="40" y="37" width="3" height="3" style="fill :#800080;"></rect>

                        <rect id="63" x="16" y="41" width="3" height="3" style="fill :#800080;"></rect>
                        <rect id="64" x="20" y="41" width="3" height="3" style="fill :#800080;"></rect>
                        <rect id="65" x="24" y="41" width="3" height="3" style="fill :#800080;"></rect>
                        <rect id="66" x="28" y="41" width="3" height="3" style="fill :#800080;"></rect>
                        <rect id="67" x="32" y="41" width="3" height="3" style="fill :#800080;"></rect>
   
                       




                        <rect id="90" x="0" y="17" width="3" height="3" style="fill :#800080;"></rect>
                        <rect id="91" x="4" y="17" width="3" height="3" style="fill :#800080;"></rect>
                        <rect id="92" x="8" y="17" width="3" height="3" style="fill :#800080;"></rect>
                        <rect id="93" x="12" y="17" width="3" height="3" style="fill :#800080;"></rect>
                        <rect id="94" x="16" y="17" width="3" height="3" style="fill :#800080;"></rect>
                        <rect id="95" x="20" y="17" width="3" height="3" style="fill :#800080;"></rect>
                        <rect id="96" x="24" y="17" width="3" height="3" style="fill :#800080;"></rect>
                        <rect id="97" x="28" y="17" width="3" height="3" style="fill :#800080;"></rect>
                        <rect id="98" x="32" y="17" width="3" height="3" style="fill :#800080;"></rect>
                        <rect id="99" x="36" y="17" width="3" height="3" style="fill :#800080;"></rect>
                        <rect id="100" x="40" y="17" width="3" height="3" style="fill :#800080;"></rect>
                        <rect id="101" x="44" y="17" width="3" height="3" style="fill :#800080;"></rect>
                        <rect id="102" x="48" y="17" width="3" height="3" style="fill :#800080;"></rect>
                        <rect id="103" x="52" y="17" width="3" height="3" style="fill :#800080;"></rect>

                        <rect id="110" x="4" y="13" width="3" height="3" style="fill :#800080;"></rect>
                        <rect id="111" x="8" y="13" width="3" height="3" style="fill :#800080;"></rect>
                        <rect id="112" x="12" y="13" width="3" height="3" style="fill :#800080;"></rect>
                        <rect id="113" x="16" y="13" width="3" height="3" style="fill :#800080;"></rect>
                        <rect id="114" x="20" y="13" width="3" height="3" style="fill :#800080;"></rect>
                        <rect id="115" x="24" y="13" width="3" height="3" style="fill :#800080;"></rect>
                        <rect id="116" x="28" y="13" width="3" height="3" style="fill :#800080;"></rect>
                        <rect id="117" x="32" y="13" width="3" height="3" style="fill :#800080;"></rect>
                        <rect id="118" x="36" y="13" width="3" height="3" style="fill :#800080;"></rect>
                        <rect id="119" x="40" y="13" width="3" height="3" style="fill :#800080;"></rect>
                        <rect id="120" x="44" y="13" width="3" height="3" style="fill :#800080;"></rect>

                        <rect id="130" x="4" y="9" width="3" height="3" style="fill :#800080;"></rect>
                        <rect id="131" x="8" y="9" width="3" height="3" style="fill :#800080;"></rect>
                        <rect id="132" x="12" y="9" width="3" height="3" style="fill :#800080;"></rect>
                        <rect id="133" x="16" y="9" width="3" height="3" style="fill :#800080;"></rect>
                        <rect id="134" x="20" y="9" width="3" height="3" style="fill :#800080;"></rect>
                        <rect id="135" x="24" y="9" width="3" height="3" style="fill :#800080;"></rect>
                        <rect id="136" x="28" y="9" width="3" height="3" style="fill :#800080;"></rect>
                        <rect id="137" x="32" y="9" width="3" height="3" style="fill :#800080;"></rect>
                        <rect id="138" x="36" y="9" width="3" height="3" style="fill :#800080;"></rect>
                        <rect id="139" x="40" y="9" width="3" height="3" style="fill :#800080;"></rect>
                        <rect id="140" x="44" y="9" width="3" height="3" style="fill :#800080;"></rect>
                         
                        
                        <rect id="141" x="8" y="5" width="3" height="3" style="fill :#800080;"></rect>
                        <rect id="142" x="12" y="5" width="3" height="3" style="fill :#800080;"></rect>
                        <rect id="143" x="16" y="5" width="3" height="3" style="fill :#800080;"></rect>
                        <rect id="144" x="20" y="5" width="3" height="3" style="fill :#800080;"></rect>
                        <rect id="145" x="24" y="5" width="3" height="3" style="fill :#800080;"></rect>
                        <rect id="146" x="28" y="5" width="3" height="3" style="fill :#800080;"></rect>
                        <rect id="147" x="32" y="5" width="3" height="3" style="fill :#800080;"></rect>
                        <rect id="148" x="36" y="5" width="3" height="3" style="fill :#800080;"></rect>
                        <rect id="149" x="40" y="5" width="3" height="3" style="fill :#800080;"></rect>

                        <rect id="153" x="16" y="1" width="3" height="3" style="fill :#800080;"></rect>
                        <rect id="154" x="20" y="1" width="3" height="3" style="fill :#800080;"></rect>
                        <rect id="155" x="24" y="1" width="3" height="3" style="fill :#800080;"></rect>
                        <rect id="156" x="28" y="1" width="3" height="3" style="fill :#800080;"></rect>
                        <rect id="157" x="32" y="1" width="3" height="3" style="fill :#800080;"></rect>

                        

                        

                        
                    </g>
                </g>
            </g>
        </g>
    </g>
</svg>
